<svg width="284" height="140" viewBox="0 0 284 140" fill="none" xmlns="http://www.w3.org/2000/svg">
<g clip-path="url(#clip0_1351_23651)">
<rect width="284" height="140" fill="white"/>
<rect x="-0.28363" y="0.154785" width="284" height="140" fill="white"/>
<path d="M66.4318 86.4982H59.9351V70.1296H55.5094V64.8003H59.9349V61.0081C59.9349 56.5144 61.8923 53.2915 68.3715 53.2915C69.7418 53.2915 71.8932 53.5707 71.8932 53.5707V58.5192H69.6335C67.3311 58.5192 66.4322 59.227 66.4322 61.1839V64.8003H71.807L71.3284 70.1296H66.432L66.4318 86.4982ZM81.3387 64.3744C81.2441 64.3744 81.1467 64.3779 81.0503 64.3803C75.0261 64.3803 72.2699 68.9601 72.2699 75.4613C72.2699 83.651 75.8451 86.9288 81.0973 86.9288C84.1023 86.9288 86.0767 85.6504 87.2767 83.2648V86.5004H93.456V64.8025H87.2767V68.1394C86.2968 65.9925 84.2673 64.3998 81.3387 64.3744ZM82.9099 69.5015C85.4401 69.5015 86.9587 71.2852 86.9587 74.3192L86.9646 77.418C86.9646 79.4629 85.7103 81.8553 82.9099 81.8553C78.6048 81.8553 78.7198 77.157 78.7198 75.5922C78.7198 70.3284 81.0136 69.5015 82.9099 69.5015ZM95.9515 75.6526C95.9515 73.0159 95.8267 64.3885 106.948 64.3885C111.412 64.3885 113.277 65.8232 113.277 65.8232L111.778 70.5199C111.778 70.5199 109.917 69.4838 107.491 69.4838C104.384 69.4838 102.401 71.3042 102.401 74.5072L102.404 76.8039C102.404 79.8817 104.317 81.9361 107.497 81.9361C109.707 81.9361 111.744 80.8902 111.744 80.8902L113.238 85.4889C113.238 85.4889 111.534 86.9326 106.979 86.9326C96.3899 86.9326 95.9517 79.1921 95.9517 75.6526H95.9515ZM149.508 64.3803C155.532 64.3803 158.332 68.9601 158.332 75.4613C158.332 83.651 154.757 86.9288 149.504 86.9288C146.499 86.9288 144.278 85.6506 143.078 83.2648V86.5004L136.977 86.498V53.9512L143.455 53.3802V67.8454C144.39 65.3147 147.463 64.3803 149.508 64.3803H149.508ZM147.692 69.5015C145.162 69.5015 143.455 71.2852 143.455 74.3192L143.449 77.418C143.445 79.4629 144.631 81.8553 147.692 81.8553C151.997 81.8553 151.882 77.157 151.882 75.5922C151.882 70.3284 149.588 69.5015 147.692 69.5015ZM124.517 64.3983C117.684 64.3983 114.077 68.1634 114.077 74.8545V76.0977C114.077 84.7821 119.143 87.018 125.182 87.018C131.052 87.018 133.709 85.3585 133.709 85.3585L132.497 80.9394C132.497 80.9394 129.371 82.2834 125.959 82.2834C122.421 82.2834 120.899 81.3721 120.509 77.9357H134.227V74.3905C134.227 67.1323 130.179 64.3981 124.517 64.3981L124.517 64.3983ZM124.682 68.8233C127.047 68.8233 128.579 70.2892 128.495 73.6888H120.521C120.659 70.1107 122.312 68.8235 124.682 68.8235V68.8233ZM171.249 64.3685C164.233 64.3685 160.539 68.3649 160.539 75.5266C160.539 85.353 166.906 86.9347 171.261 86.9347C177.636 86.9347 181.878 83.4658 181.878 75.6159C181.878 67.4455 177.109 64.3685 171.249 64.3685V64.3685ZM171.161 69.5193C174.247 69.5193 175.469 71.8531 175.469 74.5097V76.7937C175.469 80.0118 173.758 81.8732 171.149 81.8732C168.709 81.8732 166.995 80.1321 166.995 76.7937V74.5097C166.995 70.9493 169.035 69.5193 171.161 69.5193V69.5193ZM194.784 64.3685C187.767 64.3685 184.073 68.3649 184.073 75.5266C184.073 85.353 190.441 86.9347 194.795 86.9347C201.17 86.9347 205.412 83.4658 205.412 75.6159C205.412 67.4455 200.643 64.3685 194.784 64.3685V64.3685ZM194.695 69.5193C197.781 69.5193 199.003 71.8531 199.003 74.5097V76.7937C199.003 80.0118 197.292 81.8732 194.684 81.8732C192.244 81.8732 190.529 80.1321 190.529 76.7937V74.5097C190.529 70.9493 192.569 69.5193 194.695 69.5193V69.5193ZM207.86 86.4982V53.9512L214.357 53.3802V75.1952L220.803 64.8003H227.664L220.94 75.5664L227.923 86.4982H221.042L214.357 75.8835V86.4982H207.86Z" fill="#0084FF"/>
</g>
<defs>
<clipPath id="clip0_1351_23651">
<rect width="284" height="140" fill="white"/>
</clipPath>
</defs>
</svg>
