<svg width="284" height="140" viewBox="0 0 284 140" fill="none" xmlns="http://www.w3.org/2000/svg">
<g clip-path="url(#clip0_1351_23652)">
<rect width="284" height="140" fill="white"/>
<rect y="0.867188" width="284" height="140" fill="white"/>
<path d="M85.8551 45.5042H87.2225C91.9694 45.6084 96.6389 47.5379 99.9927 50.9536C98.7544 52.2313 97.4902 53.4568 96.2777 54.7344C94.3944 53.0135 92.1242 51.6837 89.6475 51.2144C85.9841 50.4322 82.037 51.1362 78.967 53.2482C75.6132 55.4645 73.3429 59.2192 72.8527 63.2346C72.311 67.1978 73.4203 71.3697 75.9743 74.4465C78.4252 77.445 82.166 79.3223 86.0357 79.4527C89.6475 79.6613 93.4141 78.5401 96.0455 75.9848C98.1094 74.1857 99.0639 71.4479 99.3735 68.7884C95.091 68.7884 90.8084 68.8144 86.5259 68.7884V63.4171H104.559C105.488 69.1795 104.146 75.6719 99.8121 79.7917C96.9227 82.712 92.9239 84.4329 88.8478 84.7718C84.9006 85.1629 80.8244 84.4068 77.3159 82.4773C73.1107 80.2088 69.7569 76.3759 68.1058 71.8651C66.5579 67.7193 66.5321 63.026 67.9768 58.8541C69.2925 55.0473 71.8208 51.6837 75.0714 49.337C78.193 47.0165 81.9854 45.7388 85.8551 45.5042Z" fill="#4285F4"/>
<path d="M189.307 46.8601H194.828V84.0939C192.997 84.0939 191.139 84.12 189.307 84.0678C189.333 71.6826 189.307 59.2714 189.307 46.8601V46.8601Z" fill="#34A853"/>
<path d="M116.838 59.7669C120.244 59.1151 123.933 59.8452 126.745 61.905C129.299 63.7302 131.079 66.5983 131.621 69.7272C132.317 73.3515 131.44 77.3147 129.118 80.1828C126.616 83.3899 122.514 85.1108 118.515 84.8501C114.852 84.6415 111.292 82.7902 109.125 79.7657C106.674 76.4282 106.08 71.8392 107.422 67.9281C108.763 63.7302 112.556 60.5231 116.838 59.7669V59.7669ZM117.612 64.721C116.219 65.086 114.929 65.8943 114.001 67.0416C111.498 70.0661 111.653 74.9941 114.413 77.8101C115.987 79.4267 118.36 80.1828 120.553 79.7396C122.591 79.3745 124.372 77.9926 125.352 76.1675C127.055 73.0647 126.564 68.7885 123.959 66.3636C122.282 64.7992 119.831 64.1474 117.612 64.721Z" fill="#EA4335"/>
<path d="M144.183 59.7667C148.078 59.0105 152.335 60.1056 155.25 62.8695C159.997 67.1717 160.513 75.2287 156.463 80.1828C154.012 83.3117 150.039 85.0326 146.117 84.85C142.377 84.7457 138.687 82.8684 136.469 79.7656C133.966 76.3498 133.425 71.6565 134.843 67.6671C136.262 63.5996 139.977 60.4967 144.183 59.7667V59.7667ZM144.956 64.7208C143.563 65.0858 142.273 65.8941 141.345 67.0153C138.868 69.9877 138.971 74.8375 141.628 77.6796C143.202 79.3745 145.653 80.2088 147.923 79.7395C149.936 79.3484 151.741 77.9925 152.722 76.1673C154.399 73.0384 153.909 68.7623 151.277 66.3374C149.6 64.7729 147.149 64.1471 144.956 64.7208Z" fill="#FBBC05"/>
<path d="M167.378 61.279C170.345 59.4017 174.292 58.8802 177.491 60.4968C178.497 60.9401 179.323 61.6962 180.123 62.4524C180.149 61.7484 180.123 61.0183 180.149 60.2882C181.877 60.3143 183.606 60.2882 185.36 60.3143V83.3117C185.334 86.7795 184.457 90.456 181.98 92.9851C179.271 95.7751 175.118 96.6355 171.377 96.0619C167.378 95.4622 163.895 92.5158 162.348 88.7872C163.895 88.0311 165.521 87.4314 167.12 86.7274C168.023 88.8654 169.855 90.6906 172.151 91.1078C174.447 91.525 177.104 90.9514 178.601 89.0219C180.2 87.0402 180.2 84.3285 180.123 81.9037C178.936 83.077 177.569 84.12 175.918 84.5111C172.332 85.528 168.384 84.2764 165.624 81.8254C162.838 79.3745 161.187 75.5937 161.341 71.839C161.419 67.589 163.792 63.4953 167.378 61.279V61.279ZM172.719 64.6165C171.145 64.8773 169.674 65.7638 168.668 66.9893C166.243 69.9096 166.243 74.5768 168.694 77.445C170.087 79.1398 172.332 80.0785 174.499 79.8438C176.537 79.6352 178.42 78.3315 179.426 76.5324C181.129 73.4817 180.845 69.3359 178.549 66.6764C177.13 65.0337 174.86 64.2254 172.719 64.6165V64.6165Z" fill="#4285F4"/>
<path d="M201.454 62.609C204.55 59.6887 209.323 58.6979 213.296 60.2362C217.062 61.6703 219.462 65.2946 220.674 69.0232C215.076 71.3699 209.503 73.6905 203.905 76.0372C204.679 77.5234 205.866 78.8792 207.465 79.4268C209.71 80.2351 212.393 79.9483 214.276 78.436C215.024 77.8623 215.618 77.1062 216.185 76.3761C217.604 77.3409 219.023 78.2795 220.442 79.2443C218.43 82.2949 215.05 84.433 211.412 84.772C207.388 85.2674 203.105 83.7029 200.5 80.5219C196.217 75.5157 196.63 67.1198 201.454 62.609V62.609ZM204.215 67.4327C203.337 68.7103 202.976 70.2748 203.002 71.8132C206.743 70.2487 210.484 68.6843 214.224 67.0937C213.605 65.6336 212.109 64.7471 210.587 64.5124C208.136 64.0691 205.582 65.3989 204.215 67.4327V67.4327Z" fill="#EA4335"/>
</g>
<defs>
<clipPath id="clip0_1351_23652">
<rect width="284" height="140" fill="white"/>
</clipPath>
</defs>
</svg>
