<svg width="24" height="24" viewBox="0 0 24 24" fill="none" xmlns="http://www.w3.org/2000/svg">
<path fill-rule="evenodd" clip-rule="evenodd" d="M3.5 5C3.5 3.89543 4.39543 3 5.5 3C6.03043 3 6.53914 3.21071 6.91421 3.58579C7.28929 3.96086 7.5 4.46957 7.5 5C7.5 6.10457 6.60457 7 5.5 7C4.39543 7 3.5 6.10457 3.5 5ZM21 13.4099C21.0344 11.2448 19.5574 9.34754 17.45 8.84992C16.0377 8.54582 14.5657 8.94458 13.5 9.91992V9.49992C13.5 9.22378 13.2761 8.99992 13 8.99992H10.5C10.2238 8.99992 9.99998 9.22378 9.99998 9.49992V19.4999C9.99998 19.7761 10.2238 19.9999 10.5 19.9999H13C13.2761 19.9999 13.5 19.7761 13.5 19.4999V13.8599C13.4753 12.8556 14.1752 11.9786 15.16 11.7799C15.7463 11.6787 16.3473 11.8438 16.7996 12.2304C17.252 12.617 17.5087 13.185 17.5 13.7799V19.4999C17.5 19.7761 17.7238 19.9999 18 19.9999H20.5C20.7761 19.9999 21 19.7761 21 19.4999V13.4099ZM7.49998 9.5V19.5C7.49998 19.7761 7.27612 20 6.99998 20H4.49998C4.22384 20 3.99998 19.7761 3.99998 19.5V9.5C3.99998 9.22386 4.22384 9 4.49998 9H6.99998C7.27612 9 7.49998 9.22386 7.49998 9.5Z" fill="white"/>
</svg>
