<svg width="284" height="140" viewBox="0 0 284 140" fill="none" xmlns="http://www.w3.org/2000/svg">
<rect width="284" height="140" fill="white"/>
<rect width="284" height="140" fill="white"/>
<path d="M70.0458 47.8674C67.6734 48.1361 64.1148 49.2523 62.09 50.3685C56.6498 53.3244 52.9685 57.9339 51.1278 64.0729C50.7597 65.2718 50.3302 68.5377 50.3507 70.0673C50.3507 71.4109 50.7597 74.6975 51.0051 75.4829C51.1278 75.855 51.3937 76.7438 51.6187 77.4259C51.9868 78.5835 53.7661 82.2214 54.0729 82.4695C54.1343 82.5315 54.4615 82.9449 54.7683 83.4203C55.525 84.5572 57.5088 86.5829 59.0018 87.7404C60.1471 88.6292 63.3785 90.5102 63.7875 90.5309C63.8898 90.5309 63.9102 89.7454 63.8489 88.7119C63.7057 86.4175 64.1352 83.2963 65.0555 80.1131C65.2192 79.5756 65.3419 78.8729 65.3419 78.5628C65.3419 78.2527 65.4237 77.922 65.5259 77.8187C65.6282 77.6946 65.8123 77.0952 65.9145 76.4751C66.0372 75.855 66.2418 74.9042 66.3849 74.3667C66.5894 73.5606 66.569 73.2505 66.2827 72.3824C65.8736 71.0595 65.8532 68.9098 66.2622 67.8763C67.2234 65.4165 68.2869 64.4863 70.0867 64.4863C72.2546 64.4863 73.2976 66.14 72.8886 68.9098C72.7045 70.1707 72.1932 72.155 71.866 72.7751C71.7842 72.9611 71.641 73.4779 71.5797 73.912C71.4979 74.3667 71.3343 75.0075 71.232 75.3589C70.9457 76.165 71.4979 77.736 72.2341 78.3354C72.9295 78.8935 74.3816 79.0589 75.711 78.7488C76.6517 78.5421 77.0403 78.2941 78.022 77.3432C79.1878 76.1857 80.0672 74.8421 80.0672 74.2014C80.0672 74.0153 80.1695 73.7673 80.2922 73.6433C80.8648 73.0645 81.1716 68.5584 80.7421 66.6567C80.2717 64.569 78.8196 62.5227 76.9381 61.3238C75.0565 60.1042 71.1706 59.7528 68.7778 60.5796C67.1007 61.1584 65.6077 62.1299 64.6465 63.2668C63.7875 64.2796 62.8877 65.9333 62.8877 66.512C62.8877 66.7187 62.7854 66.9874 62.6627 67.1115C62.54 67.2355 62.3968 68.0209 62.3355 68.8684C62.2332 70.1293 62.315 70.7081 62.6831 71.9483C62.9286 72.7958 63.3785 73.788 63.6444 74.16C64.1966 74.9042 64.1966 75.1935 63.6853 77.1779C63.5421 77.7153 63.2967 78.2114 63.1535 78.2734C61.8651 78.7695 59.2472 75.6483 58.3678 72.5477C58.0406 71.3695 58.0201 67.1735 58.3473 65.9333C58.4905 65.4165 58.7359 64.7137 58.8995 64.3416C59.0632 63.9902 59.2063 63.6389 59.2063 63.5562C59.2063 63.4735 59.6154 62.7707 60.1267 62.0059C62.7854 57.9545 67.1007 55.8048 72.5614 55.8048C73.8089 55.8048 75.0974 55.8875 75.4451 55.9908C78.2674 56.8797 79.0242 57.1691 80.1286 57.8305C82.276 59.1327 83.8303 60.9104 85.3847 63.8869C85.4869 64.0729 85.6301 64.569 85.6915 64.9824C85.7733 65.3958 85.9164 65.7886 86.0187 65.8506C86.1209 65.9126 86.2027 67.2561 86.2027 68.8478C86.2027 71.7209 85.9982 72.8785 85.1393 75.2349C84.178 77.8187 81.7033 80.6712 79.4536 81.7874C78.1652 82.4075 75.7519 83.0896 74.7906 83.0896C73.5022 83.0896 70.9661 82.0147 70.2708 81.1466C69.9435 80.7538 69.6368 80.8985 69.6368 81.4566C69.6368 81.6633 69.555 82.0147 69.4322 82.2214C69.33 82.4075 69.1459 82.9862 69.0437 83.503C68.4506 86.2315 67.612 88.4432 66.3236 90.5102C65.935 91.151 66.2622 91.5231 67.3257 91.6678C67.8574 91.7504 68.5733 91.8951 68.9005 91.9985C69.7186 92.2672 74.1566 92.2259 75.6496 91.9571C76.9994 91.7091 79.1878 91.089 80.1695 90.6756C86.3459 88.1125 91.0294 82.9036 93.0541 76.2684C94.1381 72.7338 94.1994 68.6204 93.2177 64.4863C92.8905 63.1428 92.7882 62.8327 91.9088 60.7657C90.6408 57.7478 87.7775 54.2132 84.8734 52.0428C82.3783 50.1825 79.924 49.1076 76.0995 48.1775C75.036 47.9294 71.2525 47.7227 70.0458 47.8674ZM124.591 55.3294C123.793 55.4534 122.525 56.7763 122.198 57.8098C121.85 58.9467 122.198 60.1662 123.18 61.1171C125.348 63.2461 129.111 61.2411 128.64 58.1819C128.354 56.2389 126.595 54.9987 124.591 55.3294ZM102.298 56.5489C102.114 56.7556 102.114 81.684 102.319 81.9734C102.421 82.1388 103.3 82.2008 105.018 82.1801L107.575 82.1594L107.677 77.9634C107.759 74.5528 107.841 73.7259 108.086 73.5813C108.25 73.4779 109.641 73.3746 111.174 73.3746C114.529 73.3746 115.94 73.1265 117.474 72.2997C119.478 71.2042 120.644 69.6332 121.278 67.1321C121.666 65.5612 121.666 64.4243 121.257 62.812C120.889 61.3651 120.725 61.0137 119.846 59.8355C118.762 58.3679 117.658 57.5618 115.858 56.921C114.856 56.5903 114.017 56.5283 108.598 56.4663C105.223 56.4249 102.38 56.4663 102.298 56.5489ZM113.526 61.6958C114.897 62.1299 115.572 62.75 115.878 63.8662C116.267 65.3338 115.981 66.6981 115.122 67.5249C114.181 68.4137 113.342 68.6204 110.602 68.6204C108.802 68.6204 108.25 68.5584 108.004 68.2897C107.739 68.0416 107.677 67.4422 107.677 65.0858C107.677 61.3651 107.657 61.3858 110.5 61.3858C111.727 61.3858 112.913 61.5098 113.526 61.6958ZM149.399 60.4763C149.399 61.9025 149.297 63.2461 149.194 63.4735C149.051 63.7422 148.765 63.8662 148.274 63.8662C147.906 63.8662 147.558 63.9489 147.517 64.0729C147.497 64.1763 147.497 64.8997 147.558 65.6645C147.661 67.0288 147.681 67.0494 148.295 67.1941C148.642 67.2561 149.031 67.3802 149.153 67.4629C149.338 67.5662 149.399 69.1992 149.399 73.3332C149.399 78.8935 149.419 79.1002 149.869 79.927C150.81 81.684 152.283 82.3041 155.269 82.2214L157.273 82.1594L157.334 80.1544L157.396 78.1287H156.884C156.107 78.1287 154.962 77.5086 154.839 77.0125C154.778 76.7645 154.716 74.5734 154.716 72.1137C154.716 68.7237 154.778 67.5869 154.982 67.4215C155.125 67.2975 155.698 67.1735 156.25 67.1321L157.273 67.0701V63.9696L156.148 63.9076C155.534 63.8662 154.962 63.7215 154.88 63.5975C154.798 63.4528 154.716 62.1092 154.716 60.6003V57.8718H149.399V60.4763ZM225.418 57.9959C225.337 58.0785 225.275 59.3808 225.275 60.8897C225.275 63.8249 225.255 63.8662 224.13 63.8662C223.619 63.8662 223.619 63.8869 223.68 65.4578C223.741 67.0288 223.762 67.0701 224.294 67.1321C224.58 67.1735 224.928 67.3182 225.03 67.4422C225.153 67.5869 225.275 70.088 225.337 73.2712C225.398 76.3304 225.5 79.1209 225.582 79.4516C225.827 80.3611 227.095 81.5186 228.302 81.9114C229.652 82.3661 233.088 82.4075 233.436 81.9734C233.599 81.7874 233.66 81.0432 233.62 79.9684L233.558 78.2321L232.842 78.108C232.065 77.984 231.186 77.5706 230.961 77.2192C230.879 77.0952 230.797 74.8421 230.797 72.217C230.797 66.8221 230.675 67.1735 232.454 67.1735C233.62 67.1735 233.722 66.9668 233.62 65.0858L233.558 63.9696L232.229 63.8662L230.899 63.7629L230.797 60.869L230.695 57.9752L228.118 57.9132C226.707 57.8925 225.5 57.9339 225.418 57.9959ZM139.275 63.3701C138.273 63.6388 137.107 64.321 136.33 65.1271C135.389 66.1193 135.144 66.0573 135.042 64.7964L134.98 63.9696H129.867V82.1594L132.444 82.2008C134.98 82.2628 135.042 82.2421 135.164 81.7874C135.226 81.5393 135.287 78.9142 135.287 75.9377C135.287 70.0466 135.308 69.8813 136.514 68.7237C137.046 68.207 137.332 68.1036 138.478 68.0416L139.807 67.9589L140.605 68.8064C141.545 69.7986 141.443 68.8478 141.525 77.4053C141.545 79.679 141.566 81.684 141.586 81.8907C141.627 82.1801 141.954 82.2214 144.245 82.1801L146.842 82.1594V67.6489L146.249 66.4707C145.227 64.4243 143.652 63.4528 141.239 63.3288C140.38 63.3081 139.5 63.3081 139.275 63.3701ZM164.84 63.3701C162.631 63.9696 161.568 64.569 160.197 65.9333C158.357 67.8142 157.518 70.0053 157.518 72.9611C157.539 78.1494 160.75 81.9941 165.495 82.4488C169.544 82.8415 172.673 81.6427 174.677 78.9349C174.964 78.5421 175.577 77.2812 175.577 77.0539C175.577 76.9712 174.391 76.8885 172.959 76.8885H170.342L169.728 77.5293C169.012 78.2734 168.01 78.7488 167.09 78.7488C166.169 78.7488 164.758 78.0874 164.104 77.3846C163.613 76.8265 162.897 75.2142 162.897 74.6561C162.897 74.4701 164.39 74.4081 169.196 74.4081C172.653 74.4081 175.577 74.3254 175.72 74.2427C176.027 74.036 175.741 70.7494 175.291 69.5506C174.371 67.0494 172.632 64.9411 170.873 64.1969C170.362 63.9902 169.769 63.7215 169.564 63.6182C169.135 63.3908 165.495 63.2048 164.84 63.3701ZM168.828 67.8969C169.626 68.455 170.321 69.7779 170.219 70.5221C170.158 70.9975 170.117 70.9975 166.66 71.0595C162.672 71.1215 162.652 71.1008 163.286 69.6126C163.736 68.579 164.636 67.6489 165.474 67.3802C166.435 67.0701 167.99 67.3182 168.828 67.8969ZM195.109 63.3701C192.736 64.0109 191.08 65.0651 189.791 66.6981C189.28 67.3595 188.871 67.9796 188.871 68.1036C188.871 68.207 188.728 68.579 188.544 68.9304C188.36 69.2612 188.094 70.2947 187.951 71.2248C187.235 75.6483 189.198 79.7823 192.88 81.6427L194.291 82.3661H197.256C200.324 82.3661 200.59 82.3041 202.471 81.2913C203.842 80.5471 206.091 77.6533 205.744 77.0745C205.662 76.9712 204.496 76.8885 203.126 76.8885H200.61L200.099 77.4879C198.054 79.8237 194.229 78.6248 193.411 75.3796C193.289 74.9455 193.289 74.5734 193.391 74.4907C193.493 74.4287 196.418 74.3874 199.915 74.4081C204.905 74.4081 206.255 74.3667 206.275 74.16C206.46 71.5762 205.232 67.7522 203.699 66.0986C202.84 65.1685 201.347 64.1349 200.61 63.9489C200.283 63.8662 199.915 63.7215 199.772 63.6182C199.485 63.3908 195.743 63.2048 195.109 63.3701ZM198.299 67.4008C199.22 67.7316 200.283 68.8891 200.447 69.7779C200.692 71.1215 200.713 71.1215 196.909 71.0595C193.493 70.9975 193.473 70.9975 193.411 70.5221C193.329 69.9433 194.045 68.517 194.659 67.9796C195.538 67.2355 197.072 66.9874 198.299 67.4008ZM212.902 63.3701C208.709 64.383 207.196 65.8919 207.175 69.0338C207.175 72.4237 208.852 73.85 213.822 74.7388C217.238 75.3382 218.219 75.8757 218.178 77.1779C218.158 78.108 217.524 78.7075 216.256 78.9762C214.661 79.3276 213.413 78.9349 212.411 77.798L211.613 76.8885H209.139C207.134 76.8885 206.664 76.9505 206.664 77.1779C206.664 77.7773 207.482 79.3483 208.157 80.1337C208.791 80.8159 209.282 81.1466 211.204 82.0767C211.388 82.1801 212.391 82.3455 213.393 82.4695C215.254 82.6969 218.485 82.4902 219.303 82.0767C219.487 81.9941 220.019 81.7253 220.469 81.5186C221.635 80.9605 222.739 79.6997 223.148 78.5008C223.598 77.1365 223.475 75.2349 222.841 73.912C222.085 72.3617 220.08 71.2455 217.095 70.7081C213.25 70.026 213.188 70.0053 212.575 69.4059C211.838 68.6411 211.838 68.3723 212.575 67.5455C213.168 66.8841 213.209 66.8634 214.845 66.8634C216.481 66.8634 216.522 66.8841 217.115 67.5455C217.442 67.9176 217.708 68.3517 217.708 68.517C217.708 68.7651 218.138 68.8271 220.265 68.8271C223.087 68.8271 223.005 68.8891 222.514 67.4215C221.614 64.8171 219.303 63.4942 215.458 63.3495C214.272 63.3081 213.127 63.3081 212.902 63.3701ZM185.701 63.8042C184.801 64.1143 183.553 65.1478 183.165 65.8919C182.776 66.636 182.429 66.326 182.326 65.0858L182.224 63.9696H177.111L177.05 72.6511C177.029 77.4259 177.05 81.5393 177.111 81.808C177.213 82.2628 177.275 82.2628 179.729 82.2214C181.14 82.2008 182.285 82.0767 182.367 81.9527C182.449 81.8494 182.531 79.6583 182.531 77.0952C182.531 73.0438 182.572 72.3204 182.919 71.4109C183.635 69.5299 185.169 68.4137 187.092 68.4137C187.623 68.4137 187.848 68.3103 187.91 68.0416C188.053 67.4422 188.073 64.6517 187.951 64.0316C187.828 63.5355 187.726 63.4528 187.173 63.4735C186.805 63.4942 186.151 63.6388 185.701 63.8042ZM122.709 64.1143C122.648 64.259 122.627 68.331 122.648 73.1678L122.709 81.9527L125.143 82.0561C126.616 82.1181 127.679 82.0767 127.843 81.9527C128.068 81.7874 128.129 80.0304 128.129 73.0025C128.149 68.207 128.088 64.1763 128.027 64.0729C127.822 63.7629 122.812 63.8042 122.709 64.1143Z" fill="#D71818"/>
</svg>
