<svg width="284" height="140" viewBox="0 0 284 140" fill="none" xmlns="http://www.w3.org/2000/svg">
<g clip-path="url(#clip0_1351_23650)">
<rect x="-0.108398" width="284" height="140" fill="white"/>
<path d="M215.499 53.0136H208.421V43.105H192.88L185.733 53.0136H173.033L168.787 57.2602V53.0136H158.878V43.105H127.736V53.0136H83.926L76.7776 43.105H61.2069V77.0775L81.0242 96.8948H100.841V91.2327L106.504 96.8948H144.723V91.2327L150.385 96.8948H168.787V91.2327L174.449 96.8948H209.837L222.576 84.1551V60.0912L215.499 53.0136ZM85.2708 67.1688H75.3621V69.9999H85.2708V81.324H69.7L64.038 75.662V45.936H75.3621V55.8447H85.2708V67.1688ZM127.736 81.324H93.7639L88.1018 75.662V55.8447H99.426V69.9999H102.257V55.8447H113.581V69.9999H116.412V55.8447H127.736V81.324ZM141.892 81.324H130.567V55.8447H141.892V81.324ZM141.892 53.0136H130.567V45.936H141.892V53.0136ZM165.955 67.1688H156.047V69.9999H165.955V81.324H150.385L144.723 75.662V45.936H156.047V55.8447H165.955V67.1688ZM191.435 67.1688H180.111V69.9999H191.435V81.324H174.449L168.787 75.662V61.5068L174.449 55.8447H191.435V67.1688ZM219.745 81.324H208.421V67.1688H205.59V81.324H194.266V45.936H205.59V55.8447H214.083L219.745 61.5068V81.324Z" fill="#9146FF"/>
</g>
<defs>
<clipPath id="clip0_1351_23650">
<rect width="284" height="140" fill="white"/>
</clipPath>
</defs>
</svg>
