<svg width="284" height="140" viewBox="0 0 284 140" fill="none" xmlns="http://www.w3.org/2000/svg">
<rect width="284" height="140" fill="white"/>
<rect width="284" height="140" fill="white"/>
<path d="M83.679 89.4923L72.2094 89.2802C68.4957 89.2064 64.7729 89.354 61.1322 88.5886C55.5936 87.445 55.2012 81.8381 54.7906 77.1348C54.2249 70.5227 54.4439 63.7906 55.5115 57.2338C56.1137 53.5542 58.4861 51.3594 62.1542 51.1196C74.5362 50.2527 87.0003 50.3542 99.355 50.7599C100.66 50.7968 101.974 50.9997 103.26 51.2303C109.611 52.3553 109.766 58.7093 110.177 64.0581C110.587 69.4621 110.414 74.8939 109.629 80.2611C109 84.7061 107.795 88.4318 102.713 88.7915C96.3439 89.2618 90.1209 89.6399 83.7337 89.52C83.7337 89.4923 83.6972 89.4923 83.679 89.4923V89.4923ZM76.9359 78.2415C81.7355 75.4564 86.4437 72.7175 91.2159 69.9509C86.4072 67.1659 81.7081 64.4269 76.9359 61.6603V78.2415Z" fill="#FF0000"/>
<path d="M202.174 84.4388C201.955 85.3426 201.763 86.0527 201.572 86.8089H197.082V51.811H202.32V64.722C202.594 64.3715 202.731 64.224 202.849 64.0672C203.743 62.8222 204.902 62.0107 206.399 61.6971C208.78 61.2268 210.815 62.2873 211.536 64.6021C212.001 66.0407 212.302 67.5808 212.339 69.084C212.412 72.9481 212.357 76.8029 212.22 80.667C212.165 81.8474 211.809 83.0555 211.362 84.1621C209.893 87.8141 205.094 88.3674 202.712 85.2042C202.566 85.0106 202.429 84.7985 202.174 84.4388V84.4388ZM202.429 74.8109V81.2111C202.429 82.2532 202.977 82.8895 204.008 83.1293C205.021 83.369 205.842 82.9725 206.253 82.0226C206.426 81.6261 206.599 81.2111 206.608 80.7961C206.709 76.8859 206.8 72.9757 206.827 69.0563C206.827 68.3278 206.654 67.5716 206.435 66.8615C206.025 65.5796 204.893 65.2015 203.78 65.9485C202.94 66.5203 202.429 67.3318 202.429 68.4108V74.8109ZM188.195 62.1951H193.679V86.8273H189.4C189.244 85.8959 189.089 84.9368 188.907 83.8117C188.615 84.2451 188.441 84.5218 188.259 84.7985C186.836 86.8734 184.819 87.5835 182.438 87.2054C180.403 86.8734 179.18 85.2872 178.906 82.6866C178.824 81.9119 178.788 81.1281 178.788 80.3534C178.769 74.5896 178.788 68.8073 178.788 63.0435V62.1767H184.335V63.1819C184.335 68.752 184.317 74.3129 184.354 79.8831C184.354 80.6762 184.436 81.4969 184.573 82.29C184.728 83.1016 185.312 83.3967 186.096 83.3414C187.365 83.2399 188.241 82.29 188.241 81.0174V63.2833C188.195 62.9237 188.195 62.5917 188.195 62.1951V62.1951ZM150.438 62.1767H155.949V63.2188C155.949 68.7612 155.931 74.2945 155.967 79.8185C155.967 80.6116 156.04 81.4324 156.204 82.207C156.414 83.12 156.944 83.4151 157.847 83.2953C159.097 83.12 159.854 82.2439 159.863 80.9621V63.3202V62.2136H165.347V86.8273H161.086C160.931 85.9143 160.776 84.9737 160.575 83.784C160.301 84.199 160.146 84.4388 159.991 84.6878C158.568 86.7996 156.569 87.5743 154.133 87.1962C152.181 86.9011 150.985 85.444 150.62 83.0555C150.52 82.3085 150.447 81.5707 150.447 80.8237C150.429 74.8386 150.429 68.8258 150.429 62.8407L150.438 62.1767ZM147.609 75.3274C147.591 76.1574 147.536 76.9873 147.491 77.8173C147.281 80.3073 147.18 83.8394 145.191 85.6561C143.923 86.7996 142.317 87.2146 140.656 87.27C139.917 87.2884 139.169 87.2884 138.43 87.187C134.935 86.6521 133.311 85.0936 132.727 81.2111C132.061 76.7291 132.006 72.1734 132.8 67.6915C133.621 63.0528 136.45 61.4112 140.848 61.7156C144.954 62.0107 146.788 64.7312 147.272 68.6045C147.536 70.827 147.664 73.0772 147.609 75.3274V75.3274ZM142.025 74.4789C142.025 72.902 142.061 71.3158 142.007 69.7388C141.97 68.8258 141.852 67.9036 141.66 66.9998C141.441 65.9577 140.784 65.4597 139.963 65.4782C139.16 65.4966 138.594 65.9946 138.302 66.9629C138.202 67.3226 138.092 67.6915 138.092 68.0511C138.092 70.5227 138.074 73.0034 138.056 75.4749C138.037 77.7804 137.745 80.1966 138.466 82.4007C138.685 83.0739 139.251 83.4428 139.99 83.4428C140.711 83.4428 141.185 83.0831 141.45 82.4376C141.66 81.9396 141.842 81.3955 141.842 80.8606C141.906 78.7395 142.025 76.6092 142.025 74.4789ZM124.679 69.8402C125.163 67.4517 125.619 65.1185 126.121 62.7761C126.75 59.7974 127.453 56.8186 128.073 53.8307C128.229 53.1021 128.521 52.9269 129.205 52.9454C130.674 53.0007 132.17 52.9638 133.74 52.9638C133.229 54.8635 132.727 56.6711 132.234 58.4509C130.674 64.0395 129.114 69.6466 127.572 75.2536C127.453 75.687 127.398 76.1574 127.398 76.6185C127.38 79.6802 127.398 82.7327 127.398 85.7944V86.7904H122.042C122.024 86.5138 121.987 86.2371 121.987 85.9604C121.987 84.2267 121.851 82.4837 122.006 80.7684C122.398 76.6461 121.102 72.8558 120.053 69.0195C118.666 63.9473 117.261 58.8567 115.874 53.7846C115.801 53.5448 115.774 53.2866 115.701 52.9915H121.166C122.316 58.5893 123.475 64.1871 124.679 69.8402ZM229.475 76.268H220.241C220.341 78.1401 220.377 79.92 220.569 81.6814C220.706 82.9079 221.372 83.4336 222.421 83.4428C223.516 83.4613 224.155 82.9079 224.41 81.6906C224.493 81.2941 224.547 80.8975 224.584 80.4917C224.62 80.1321 224.639 79.7447 224.666 79.2283C226.226 79.3113 227.75 79.4035 229.256 79.4681C230.132 82.0964 228.553 85.4717 225.898 86.5138C223.808 87.3438 221.664 87.3438 219.529 86.7074C217.95 86.2371 216.773 85.2227 216.244 83.6641C215.751 82.207 215.286 80.6854 215.186 79.1638C214.912 75.4104 214.811 71.6201 215.377 67.8575C215.478 67.2304 215.651 66.6309 215.843 66.0223C216.609 63.5139 218.279 61.9738 220.861 61.7156C222.266 61.5772 223.717 61.6326 225.104 61.8723C227.349 62.2689 228.544 63.9012 229.064 66.0407C229.301 67.0459 229.475 68.0788 229.511 69.1025C229.52 71.4541 229.475 73.7873 229.475 76.268ZM224.228 73.0311C224.228 71.1774 224.246 69.4345 224.21 67.6823C224.21 67.2673 224.055 66.8338 223.9 66.4373C223.589 65.6626 222.941 65.4505 222.166 65.4505C221.39 65.4505 220.898 65.8471 220.706 66.5572C220.122 68.6875 220.314 70.8639 220.332 73.0495C221.728 73.0311 222.996 73.0311 224.228 73.0311V73.0311Z" fill="#282828"/>
<path d="M169.581 57.4829H164.152V53.0378H180.357V57.4552H174.964V86.7907H169.59L169.581 57.4829Z" fill="#282828"/>
</svg>
